<svg xmlns="http://www.w3.org/2000/svg" width="960" height="500"><defs><style type="text/css">
.background {
  fill: white;
}

text {
  font-size: 14px;
  font-family: sans-serif;
}

.axis-path,
.axis-line {
  fill: none;
  stroke: #000;
  stroke-width: 1px;
  shape-rendering: crispEdges;
}

.line {
  fill: none;
  stroke-width: 1.5px;
}

.data-series-0 {
  stroke: steelblue;
  fill: steelblue;
}

.data-series-1 {
  stroke: crimson;
  fill: crimson;
}

.data-series-2 {
  stroke: mediumseagreen;
  fill: mediumseagreen;
}

.data-series-3 {
  stroke: mediumslateblue;
  fill: mediumslateblue;
}

.data-series-4 {
  stroke: goldenrod;
  fill: goldenrod;
}

.error-bar {
  fill: none;
}
</style></defs><rect width="960" height="500" class="background"/><g transform="translate(80,40)"><g transform="translate(420, 0)"><text style="text-anchor: middle; font-size: 28px;">Finding `Σ_i i * a_i` of an array `a`</text></g><g class="x axis" transform="translate(0,400)"><g class="tick" style="opacity: 1;" transform="translate(0,0)"><line y2="6" x2="0" class="axis-line"/><text dy=".71em" style="text-anchor: middle;" y="9" x="0">1,000</text></g><g class="tick" style="opacity: 1;" transform="translate(105,0)"><line y2="6" x2="0" class="axis-line"/><text dy=".71em" style="text-anchor: middle;" y="9" x="0">1,500</text></g><g class="tick" style="opacity: 1;" transform="translate(210,0)"><line y2="6" x2="0" class="axis-line"/><text dy=".71em" style="text-anchor: middle;" y="9" x="0">2,000</text></g><g class="tick" style="opacity: 1;" transform="translate(315,0)"><line y2="6" x2="0" class="axis-line"/><text dy=".71em" style="text-anchor: middle;" y="9" x="0">2,500</text></g><g class="tick" style="opacity: 1;" transform="translate(420,0)"><line y2="6" x2="0" class="axis-line"/><text dy=".71em" style="text-anchor: middle;" y="9" x="0">3,000</text></g><g class="tick" style="opacity: 1;" transform="translate(525,0)"><line y2="6" x2="0" class="axis-line"/><text dy=".71em" style="text-anchor: middle;" y="9" x="0">3,500</text></g><g class="tick" style="opacity: 1;" transform="translate(630,0)"><line y2="6" x2="0" class="axis-line"/><text dy=".71em" style="text-anchor: middle;" y="9" x="0">4,000</text></g><g class="tick" style="opacity: 1;" transform="translate(735,0)"><line y2="6" x2="0" class="axis-line"/><text dy=".71em" style="text-anchor: middle;" y="9" x="0">4,500</text></g><g class="tick" style="opacity: 1;" transform="translate(840,0)"><line y2="6" x2="0" class="axis-line"/><text dy=".71em" style="text-anchor: middle;" y="9" x="0">5,000</text></g><path class="axis-path" d="M0,6V0H840V6"/><text x="420" y="40" style="text-anchor: middle;">Number of elements in the array</text></g><g class="y axis"><g class="tick" style="opacity: 1;" transform="translate(0,378.5497304596509)"><line x2="-6" y2="0" class="axis-line"/><text dy=".32em" style="text-anchor: end;" x="-9" y="0">2.00e-4</text></g><g class="tick" style="opacity: 1;" transform="translate(0,334.1631053230025)"><line x2="-6" y2="0" class="axis-line"/><text dy=".32em" style="text-anchor: end;" x="-9" y="0">4.00e-4</text></g><g class="tick" style="opacity: 1;" transform="translate(0,289.7764801863542)"><line x2="-6" y2="0" class="axis-line"/><text dy=".32em" style="text-anchor: end;" x="-9" y="0">6.00e-4</text></g><g class="tick" style="opacity: 1;" transform="translate(0,245.38985504970574)"><line x2="-6" y2="0" class="axis-line"/><text dy=".32em" style="text-anchor: end;" x="-9" y="0">8.00e-4</text></g><g class="tick" style="opacity: 1;" transform="translate(0,201.0032299130574)"><line x2="-6" y2="0" class="axis-line"/><text dy=".32em" style="text-anchor: end;" x="-9" y="0">1.00e-3</text></g><g class="tick" style="opacity: 1;" transform="translate(0,156.61660477640905)"><line x2="-6" y2="0" class="axis-line"/><text dy=".32em" style="text-anchor: end;" x="-9" y="0">1.20e-3</text></g><g class="tick" style="opacity: 1;" transform="translate(0,112.2299796397606)"><line x2="-6" y2="0" class="axis-line"/><text dy=".32em" style="text-anchor: end;" x="-9" y="0">1.40e-3</text></g><g class="tick" style="opacity: 1;" transform="translate(0,67.84335450311221)"><line x2="-6" y2="0" class="axis-line"/><text dy=".32em" style="text-anchor: end;" x="-9" y="0">1.60e-3</text></g><g class="tick" style="opacity: 1;" transform="translate(0,23.456729366463858)"><line x2="-6" y2="0" class="axis-line"/><text dy=".32em" style="text-anchor: end;" x="-9" y="0">1.80e-3</text></g><path class="axis-path" d="M-6,0H0V400H-6"/><text transform="rotate(-90)" y="6" dy=".71em" style="text-anchor: end;">Mean running time (seconds)</text></g><g class="data-series-0"><circle cx="0" cy="351.4025378584752" r="3"/><circle cx="210" cy="281.4603507982292" r="3"/><circle cx="420" cy="208.48513968846297" r="3"/><circle cx="630" cy="122.09666040326562" r="3"/><circle cx="840" cy="64.83563722211096" r="3"/><path class="error-bar" x="0" y="351.4025378584752" d="M 0 351.4025378584752 V 346.522771829545 h -3 h 6 h -3 V 356.2823038874054 h -3 h 6"/><path class="error-bar" x="210" y="281.4603507982292" d="M 210 281.4603507982292 V 270.0435956438919 h -3 h 6 h -3 V 292.87710595256647 h -3 h 6"/><path class="error-bar" x="420" y="208.48513968846297" d="M 420 208.48513968846297 V 191.42109573598168 h -3 h 6 h -3 V 225.5491836409442 h -3 h 6"/><path class="error-bar" x="630" y="122.09666040326562" d="M 630 122.09666040326562 V 73.85155380465606 h -3 h 6 h -3 V 170.3417670018752 h -3 h 6"/><path class="error-bar" x="840" y="64.83563722211096" d="M 840 64.83563722211096 V 56.42404614023553 h -3 h 6 h -3 V 73.24722830398636 h -3 h 6"/><path class="line" d="M0,351.4025378584752L210,281.4603507982292L420,208.48513968846297L630,122.09666040326562L840,64.83563722211096"/></g><g class="data-series-1"><circle cx="0" cy="347.8962650252812" r="3"/><circle cx="210" cy="267.3550161928759" r="3"/><circle cx="420" cy="196.3175939477321" r="3"/><circle cx="630" cy="116.7511530693528" r="3"/><circle cx="840" cy="29.964519620387755" r="3"/><path class="error-bar" x="0" y="347.8962650252812" d="M 0 347.8962650252812 V 345.5072253916925 h -3 h 6 h -3 V 350.28530465887 h -3 h 6"/><path class="error-bar" x="210" y="267.3550161928759" d="M 210 267.3550161928759 V 256.08588632591596 h -3 h 6 h -3 V 278.6241460598358 h -3 h 6"/><path class="error-bar" x="420" y="196.3175939477321" d="M 420 196.3175939477321 V 191.87067395914937 h -3 h 6 h -3 V 200.7645139363148 h -3 h 6"/><path class="error-bar" x="630" y="116.7511530693528" d="M 630 116.7511530693528 V 111.1140193345598 h -3 h 6 h -3 V 122.38828680414579 h -3 h 6"/><path class="error-bar" x="840" y="29.964519620387755" d="M 840 29.964519620387755 V -0.03948407979494917 h -3 h 6 h -3 V 59.9685233205705 h -3 h 6"/><path class="line" d="M0,347.8962650252812L210,267.3550161928759L420,196.3175939477321L630,116.7511530693528L840,29.964519620387755"/></g><g class="data-series-2"><circle cx="0" cy="400" r="3"/><circle cx="210" cy="377.04323759956486" r="3"/><circle cx="420" cy="353.8111685730695" r="3"/><circle cx="630" cy="329.4870926908791" r="3"/><circle cx="840" cy="308.57981468012383" r="3"/><path class="error-bar" x="0" y="400" d="M 0 400 V 398.22011405541235 h -3 h 6 h -3 V 401.77988594458765 h -3 h 6"/><path class="error-bar" x="210" y="377.04323759956486" d="M 210 377.04323759956486 V 373.6152523888658 h -3 h 6 h -3 V 380.4712228102638 h -3 h 6"/><path class="error-bar" x="420" y="353.8111685730695" d="M 420 353.8111685730695 V 347.3964049555845 h -3 h 6 h -3 V 360.22593219055454 h -3 h 6"/><path class="error-bar" x="630" y="329.4870926908791" d="M 630 329.4870926908791 V 323.5760939328808 h -3 h 6 h -3 V 335.39809144887744 h -3 h 6"/><path class="error-bar" x="840" y="308.57981468012383" d="M 840 308.57981468012383 V 305.84626257088104 h -3 h 6 h -3 V 311.3133667893667 h -3 h 6"/><path class="line" d="M0,400L210,377.04323759956486L420,353.8111685730695L630,329.4870926908791L840,308.57981468012383"/></g><g class="data-series-3"><circle cx="0" cy="385.5028308099583" r="3"/><circle cx="210" cy="347.089563958484" r="3"/><circle cx="420" cy="307.67634703796205" r="3"/><circle cx="630" cy="268.1349670735548" r="3"/><circle cx="840" cy="224.38298932411928" r="3"/><path class="error-bar" x="0" y="385.5028308099583" d="M 0 385.5028308099583 V 384.8867061480855 h -3 h 6 h -3 V 386.1189554718311 h -3 h 6"/><path class="error-bar" x="210" y="347.089563958484" d="M 210 347.089563958484 V 345.94199400168424 h -3 h 6 h -3 V 348.2371339152837 h -3 h 6"/><path class="error-bar" x="420" y="307.67634703796205" d="M 420 307.67634703796205 V 306.03942951352144 h -3 h 6 h -3 V 309.3132645624026 h -3 h 6"/><path class="error-bar" x="630" y="268.1349670735548" d="M 630 268.1349670735548 V 256.4535721183347 h -3 h 6 h -3 V 279.8163620287748 h -3 h 6"/><path class="error-bar" x="840" y="224.38298932411928" d="M 840 224.38298932411928 V 212.36865628186968 h -3 h 6 h -3 V 236.397322366369 h -3 h 6"/><path class="line" d="M0,385.5028308099583L210,347.089563958484L420,307.67634703796205L630,268.1349670735548L840,224.38298932411928"/></g><g class="data-series-4"><circle cx="0" cy="347.50857895064433" r="3"/><circle cx="210" cy="271.1260786552654" r="3"/><circle cx="420" cy="194.51160299900843" r="3"/><circle cx="630" cy="118.66060092995805" r="3"/><circle cx="840" cy="37.61712049014982" r="3"/><path class="error-bar" x="0" y="347.50857895064433" d="M 0 347.50857895064433 V 342.1570304661832 h -3 h 6 h -3 V 352.8601274351055 h -3 h 6"/><path class="error-bar" x="210" y="271.1260786552654" d="M 210 271.1260786552654 V 259.4804608350491 h -3 h 6 h -3 V 282.7716964754818 h -3 h 6"/><path class="error-bar" x="420" y="194.51160299900843" d="M 420 194.51160299900843 V 173.6079884276541 h -3 h 6 h -3 V 215.41521757036276 h -3 h 6"/><path class="error-bar" x="630" y="118.66060092995805" d="M 630 118.66060092995805 V 111.31654129607682 h -3 h 6 h -3 V 126.00466056383928 h -3 h 6"/><path class="error-bar" x="840" y="37.61712049014982" d="M 840 37.61712049014982 V 21.32797622560112 h -3 h 6 h -3 V 53.906264754698526 h -3 h 6"/><path class="line" d="M0,347.50857895064433L210,271.1260786552654L420,194.51160299900843L630,118.66060092995805L840,37.61712049014982"/></g><g class="data-series-5"><circle cx="0" cy="342.86706472535764" r="3"/><circle cx="210" cy="264.9156438179431" r="3"/><circle cx="420" cy="184.74198453076437" r="3"/><circle cx="630" cy="100.45065019163819" r="3"/><circle cx="840" cy="0" r="3"/><path class="error-bar" x="0" y="342.86706472535764" d="M 0 342.86706472535764 V 341.1061991026446 h -3 h 6 h -3 V 344.6279303480706 h -3 h 6"/><path class="error-bar" x="210" y="264.9156438179431" d="M 210 264.9156438179431 V 261.93672174492684 h -3 h 6 h -3 V 267.8945658909593 h -3 h 6"/><path class="error-bar" x="420" y="184.74198453076437" d="M 420 184.74198453076437 V 180.37292359250534 h -3 h 6 h -3 V 189.11104546902342 h -3 h 6"/><path class="error-bar" x="630" y="100.45065019163819" d="M 630 100.45065019163819 V 79.7273713853166 h -3 h 6 h -3 V 121.17392899795978 h -3 h 6"/><path class="error-bar" x="840" y="0" d="M 840 0 V -51.009930147718485 h -3 h 6 h -3 V 51.00993014771839 h -3 h 6"/><path class="line" d="M0,342.86706472535764L210,264.9156438179431L420,184.74198453076437L630,100.45065019163819L840,0"/></g><g class="legend" transform="translate(50, 50)"><rect x="0" y="0" width="15" height="15" class="data-series-0"/><rect x="0" y="20" width="15" height="15" class="data-series-1"/><rect x="0" y="40" width="15" height="15" class="data-series-2"/><rect x="0" y="60" width="15" height="15" class="data-series-3"/><rect x="0" y="80" width="15" height="15" class="data-series-4"/><rect x="0" y="100" width="15" height="15" class="data-series-5"/><text x="24" y="13">ifoldMap</text><text x="24" y="33">foldMap (uncurry ...) &lt;&lt;&lt; imap Tuple</text><text x="24" y="53">ifoldr (...) 0</text><text x="24" y="73">foldr ((uncurry (...) &lt;&lt;&lt; imap Tuple) 0</text><text x="24" y="93">itraverse (... Const ...)</text><text x="24" y="113">sequence &lt;&lt;&lt; imap (... Const ...)</text></g></g></svg>