<svg xmlns="http://www.w3.org/2000/svg" width="960" height="500"><defs><style type="text/css">
.background {
  fill: white;
}

text {
  font-size: 14px;
  font-family: sans-serif;
}

.axis-path,
.axis-line {
  fill: none;
  stroke: #000;
  stroke-width: 1px;
  shape-rendering: crispEdges;
}

.line {
  fill: none;
  stroke-width: 1.5px;
}

.data-series-0 {
  stroke: steelblue;
  fill: steelblue;
}

.data-series-1 {
  stroke: crimson;
  fill: crimson;
}

.data-series-2 {
  stroke: mediumseagreen;
  fill: mediumseagreen;
}

.data-series-3 {
  stroke: mediumslateblue;
  fill: mediumslateblue;
}

.data-series-4 {
  stroke: goldenrod;
  fill: goldenrod;
}

.error-bar {
  fill: none;
}
</style></defs><rect width="960" height="500" class="background"/><g transform="translate(80,40)"><g transform="translate(420, 0)"><text style="text-anchor: middle; font-size: 28px;">Finding the sum of an array</text></g><g class="x axis" transform="translate(0,400)"><g class="tick" style="opacity: 1;" transform="translate(0,0)"><line y2="6" x2="0" class="axis-line"/><text dy=".71em" style="text-anchor: middle;" y="9" x="0">1,000</text></g><g class="tick" style="opacity: 1;" transform="translate(105,0)"><line y2="6" x2="0" class="axis-line"/><text dy=".71em" style="text-anchor: middle;" y="9" x="0">1,500</text></g><g class="tick" style="opacity: 1;" transform="translate(210,0)"><line y2="6" x2="0" class="axis-line"/><text dy=".71em" style="text-anchor: middle;" y="9" x="0">2,000</text></g><g class="tick" style="opacity: 1;" transform="translate(315,0)"><line y2="6" x2="0" class="axis-line"/><text dy=".71em" style="text-anchor: middle;" y="9" x="0">2,500</text></g><g class="tick" style="opacity: 1;" transform="translate(420,0)"><line y2="6" x2="0" class="axis-line"/><text dy=".71em" style="text-anchor: middle;" y="9" x="0">3,000</text></g><g class="tick" style="opacity: 1;" transform="translate(525,0)"><line y2="6" x2="0" class="axis-line"/><text dy=".71em" style="text-anchor: middle;" y="9" x="0">3,500</text></g><g class="tick" style="opacity: 1;" transform="translate(630,0)"><line y2="6" x2="0" class="axis-line"/><text dy=".71em" style="text-anchor: middle;" y="9" x="0">4,000</text></g><g class="tick" style="opacity: 1;" transform="translate(735,0)"><line y2="6" x2="0" class="axis-line"/><text dy=".71em" style="text-anchor: middle;" y="9" x="0">4,500</text></g><g class="tick" style="opacity: 1;" transform="translate(840,0)"><line y2="6" x2="0" class="axis-line"/><text dy=".71em" style="text-anchor: middle;" y="9" x="0">5,000</text></g><path class="axis-path" d="M0,6V0H840V6"/><text x="420" y="40" style="text-anchor: middle;">Number of elements in the array</text></g><g class="y axis"><g class="tick" style="opacity: 1;" transform="translate(0,374.476442555527)"><line x2="-6" y2="0" class="axis-line"/><text dy=".32em" style="text-anchor: end;" x="-9" y="0">3.00e-4</text></g><g class="tick" style="opacity: 1;" transform="translate(0,338.92280609913917)"><line x2="-6" y2="0" class="axis-line"/><text dy=".32em" style="text-anchor: end;" x="-9" y="0">4.00e-4</text></g><g class="tick" style="opacity: 1;" transform="translate(0,303.3691696427513)"><line x2="-6" y2="0" class="axis-line"/><text dy=".32em" style="text-anchor: end;" x="-9" y="0">5.00e-4</text></g><g class="tick" style="opacity: 1;" transform="translate(0,267.81553318636344)"><line x2="-6" y2="0" class="axis-line"/><text dy=".32em" style="text-anchor: end;" x="-9" y="0">6.00e-4</text></g><g class="tick" style="opacity: 1;" transform="translate(0,232.26189672997552)"><line x2="-6" y2="0" class="axis-line"/><text dy=".32em" style="text-anchor: end;" x="-9" y="0">7.00e-4</text></g><g class="tick" style="opacity: 1;" transform="translate(0,196.7082602735876)"><line x2="-6" y2="0" class="axis-line"/><text dy=".32em" style="text-anchor: end;" x="-9" y="0">8.00e-4</text></g><g class="tick" style="opacity: 1;" transform="translate(0,161.15462381719973)"><line x2="-6" y2="0" class="axis-line"/><text dy=".32em" style="text-anchor: end;" x="-9" y="0">9.00e-4</text></g><g class="tick" style="opacity: 1;" transform="translate(0,125.60098736081184)"><line x2="-6" y2="0" class="axis-line"/><text dy=".32em" style="text-anchor: end;" x="-9" y="0">1.00e-3</text></g><g class="tick" style="opacity: 1;" transform="translate(0,90.04735090442395)"><line x2="-6" y2="0" class="axis-line"/><text dy=".32em" style="text-anchor: end;" x="-9" y="0">1.10e-3</text></g><g class="tick" style="opacity: 1;" transform="translate(0,54.4937144480361)"><line x2="-6" y2="0" class="axis-line"/><text dy=".32em" style="text-anchor: end;" x="-9" y="0">1.20e-3</text></g><g class="tick" style="opacity: 1;" transform="translate(0,18.94007799164821)"><line x2="-6" y2="0" class="axis-line"/><text dy=".32em" style="text-anchor: end;" x="-9" y="0">1.30e-3</text></g><path class="axis-path" d="M-6,0H0V400H-6"/><text transform="rotate(-90)" y="6" dy=".71em" style="text-anchor: end;">Mean running time (seconds)</text></g><g class="data-series-0"><circle cx="0" cy="400" r="3"/><circle cx="210" cy="323.08531199127975" r="3"/><circle cx="420" cy="246.4696090821258" r="3"/><circle cx="630" cy="165.8766138863882" r="3"/><circle cx="840" cy="93.7156375442593" r="3"/><path class="error-bar" x="0" y="400" d="M 0 400 V 396.1729740144539 h -3 h 6 h -3 V 403.8270259855461 h -3 h 6"/><path class="error-bar" x="210" y="323.08531199127975" d="M 210 323.08531199127975 V 316.32689174842596 h -3 h 6 h -3 V 329.84373223413354 h -3 h 6"/><path class="error-bar" x="420" y="246.4696090821258" d="M 420 246.4696090821258 V 234.87189104720568 h -3 h 6 h -3 V 258.0673271170459 h -3 h 6"/><path class="error-bar" x="630" y="165.8766138863882" d="M 630 165.8766138863882 V 148.09705872159387 h -3 h 6 h -3 V 183.65616905118256 h -3 h 6"/><path class="error-bar" x="840" y="93.7156375442593" d="M 840 93.7156375442593 V 87.57530627924521 h -3 h 6 h -3 V 99.85596880927332 h -3 h 6"/><path class="line" d="M0,400L210,323.08531199127975L420,246.4696090821258L630,165.8766138863882L840,93.7156375442593"/></g><g class="data-series-1"><circle cx="0" cy="381.70428945089805" r="3"/><circle cx="210" cy="271.33684153649966" r="3"/><circle cx="420" cy="191.19366971808685" r="3"/><circle cx="630" cy="98.30905215418962" r="3"/><circle cx="840" cy="0" r="3"/><path class="error-bar" x="0" y="381.70428945089805" d="M 0 381.70428945089805 V 379.4794640319796 h -3 h 6 h -3 V 383.92911486981654 h -3 h 6"/><path class="error-bar" x="210" y="271.33684153649966" d="M 210 271.33684153649966 V 267.69537185959473 h -3 h 6 h -3 V 274.9783112134046 h -3 h 6"/><path class="error-bar" x="420" y="191.19366971808685" d="M 420 191.19366971808685 V 180.8520231418729 h -3 h 6 h -3 V 201.53531629430077 h -3 h 6"/><path class="error-bar" x="630" y="98.30905215418962" d="M 630 98.30905215418962 V 89.9515757003698 h -3 h 6 h -3 V 106.66652860800943 h -3 h 6"/><path class="error-bar" x="840" y="0" d="M 840 0 V -35.667246070489256 h -3 h 6 h -3 V 35.66724607048921 h -3 h 6"/><path class="line" d="M0,381.70428945089805L210,271.33684153649966L420,191.19366971808685L630,98.30905215418962L840,0"/></g><g class="legend" transform="translate(50, 50)"><rect x="0" y="0" width="15" height="15" class="data-series-0"/><rect x="0" y="20" width="15" height="15" class="data-series-1"/><text x="24" y="13">foldMap</text><text x="24" y="33">ifoldMap &lt;&lt;&lt; const</text></g></g></svg>